<?xml version="1.0" encoding="UTF-8" standalone="no"?>
<!-- Created with Inkscape (http://www.inkscape.org/) -->

<svg
   width="17.35574mm"
   height="16.534161mm"
   viewBox="0 0 17.35574 16.534161"
   version="1.1"
   id="svg5"
   inkscape:version="1.1.2 (0a00cf5339, 2022-02-04)"
   sodipodi:docname="logo.svg"
   xmlns:inkscape="http://www.inkscape.org/namespaces/inkscape"
   xmlns:sodipodi="http://sodipodi.sourceforge.net/DTD/sodipodi-0.dtd"
   xmlns="http://www.w3.org/2000/svg"
   xmlns:svg="http://www.w3.org/2000/svg">
  <sodipodi:namedview
     id="namedview7"
     pagecolor="#ffffff"
     bordercolor="#666666"
     borderopacity="1.0"
     inkscape:pageshadow="2"
     inkscape:pageopacity="0.0"
     inkscape:pagecheckerboard="0"
     inkscape:document-units="mm"
     showgrid="false"
     fit-margin-top="0"
     fit-margin-left="0"
     fit-margin-right="0"
     fit-margin-bottom="0"
     inkscape:zoom="2.9934187"
     inkscape:cx="-74.663795"
     inkscape:cy="79.507755"
     inkscape:window-width="1920"
     inkscape:window-height="1157"
     inkscape:window-x="0"
     inkscape:window-y="0"
     inkscape:window-maximized="1"
     inkscape:current-layer="layer1" />
  <defs
     id="defs2">
    <clipPath
       clipPathUnits="userSpaceOnUse"
       id="clipPath1042">
      <path
         d="M 0,0 H 595.34 V 841.56 H 0 Z"
         id="path1040" />
    </clipPath>
    <clipPath
       clipPathUnits="userSpaceOnUse"
       id="clipPath1358">
      <path
         d="m 62.311,654.45 h 212.54 v 34.68 H 62.311 Z"
         clip-rule="evenodd"
         id="path1356" />
    </clipPath>
    <clipPath
       clipPathUnits="userSpaceOnUse"
       id="clipPath1366">
      <path
         d="m 62.304,654.46 h 212.54 v 34.68 H 62.304 Z"
         clip-rule="evenodd"
         id="path1364" />
    </clipPath>
    <clipPath
       clipPathUnits="userSpaceOnUse"
       id="clipPath1378">
      <path
         d="m 62.304,654.46 h 212.54 v 34.68 H 62.304 Z"
         clip-rule="evenodd"
         id="path1376" />
    </clipPath>
    <clipPath
       clipPathUnits="userSpaceOnUse"
       id="clipPath1390">
      <path
         d="m 62.304,654.46 h 212.54 v 34.68 H 62.304 Z"
         clip-rule="evenodd"
         id="path1388" />
    </clipPath>
    <clipPath
       clipPathUnits="userSpaceOnUse"
       id="clipPath1398">
      <path
         d="m 62.304,654.46 h 212.54 v 34.68 H 62.304 Z"
         clip-rule="evenodd"
         id="path1396" />
    </clipPath>
    <clipPath
       clipPathUnits="userSpaceOnUse"
       id="clipPath1410">
      <path
         d="m 62.304,654.46 h 212.54 v 34.68 H 62.304 Z"
         clip-rule="evenodd"
         id="path1408" />
    </clipPath>
    <clipPath
       clipPathUnits="userSpaceOnUse"
       id="clipPath1418">
      <path
         d="m 62.304,654.46 h 212.54 v 34.68 H 62.304 Z"
         clip-rule="evenodd"
         id="path1416" />
    </clipPath>
    <clipPath
       clipPathUnits="userSpaceOnUse"
       id="clipPath1430">
      <path
         d="m 62.304,654.46 h 212.54 v 34.68 H 62.304 Z"
         clip-rule="evenodd"
         id="path1428" />
    </clipPath>
  </defs>
  <g
     inkscape:label="Layer 1"
     inkscape:groupmode="layer"
     id="layer1"
     transform="translate(-131.32211,-65.732922)">
    <path
       d="m 148.67785,73.574737 v 0 h -8.47678 v -7.841815 h -0.42684 v 7.841815 h -8.45208 v 0.430559 h 8.45208 v 8.261787 h 0.42684 v -8.261787 h 8.47678 z"
       style="fill:#0069b3;fill-opacity:1;fill-rule:nonzero;stroke:none;stroke-width:0.352838"
       id="path1044" />
    <path
       d="m 145.76407,76.465127 v 0 2.488065 c 0,0.455263 -0.37745,0.825826 -0.82546,0.825826 -0.44447,0 -0.82192,-0.370563 -0.82192,-0.825826 v -0.419971 -2.068094 -1.531659 -1.856344 -3.627986 -0.402326 c 0,-0.448204 0.37745,-0.815238 0.82192,-0.815238 0.44801,0 0.82546,0.367034 0.82546,0.815238 v 2.470419 h 2.27529 0.63849 v -2.068093 c 0,-2.04339 -1.67208,-3.716216 -3.73924,-3.716216 -2.03894,0 -3.70396,1.672826 -3.70396,3.716216 v 7.015989 2.068094 c 0,2.068093 1.66502,3.733862 3.70396,3.733862 2.06716,0 3.73924,-1.665769 3.73924,-3.733862 v -2.068094 h -0.63849 z"
       style="fill:#0069b3;fill-opacity:1;fill-rule:nonzero;stroke:none;stroke-width:0.352838"
       id="path1046" />
    <path
       d="m 134.21124,71.061968 v 0 -1.61283 0 -0.402326 c 0,-0.448204 0.3704,-0.815238 0.82545,-0.815238 0.44448,0 0.81488,0.367034 0.81488,0.815238 v 2.470419 0 h 2.28234 0.60674 v -2.068093 c 0,-2.04339 -1.63679,-3.716216 -3.70396,-3.716216 -2.04246,0 -3.71454,1.672826 -3.71454,3.716216 v 2.541002 c 0,0.208221 0.0776,0.419971 0.23635,0.585842 v 0 l 4.21193,4.206771 c 0,0 0.0811,0.07764 0.0811,0.165871 v 0.917584 0.667013 0.419971 c 0,0.455263 -0.3704,0.825826 -0.81488,0.825826 -0.45505,0 -0.82545,-0.370563 -0.82545,-0.825826 v -2.488065 h -2.2506 -0.63849 v 2.068094 c 0,2.068093 1.67208,3.733862 3.71454,3.733862 2.06717,0 3.70396,-1.665769 3.70396,-3.733862 v -0.667013 -1.401081 -0.444675 0 c 0,-0.247042 -0.0811,-0.455263 -0.23634,-0.589371 l -4.21194,-4.213829 c -0.0282,-0.0247 -0.0811,-0.07764 -0.0811,-0.155284 z m 1.64033,5.886656 z"
       style="fill:#0069b3;fill-opacity:1;fill-rule:nonzero;stroke:none;stroke-width:0.352838"
       id="path1048" />
  </g>
</svg>
